<svg width="24" height="14" viewBox="0 0 24 14" fill="none" xmlns="http://www.w3.org/2000/svg">
<g clip-path="url(#clip0_78_485)">
<path opacity="0.07" d="M22.1053 0H1.89474C0.821053 0 0 0.758333 0 1.75V12.25C0 13.2417 0.88421 14 1.89474 14H22.1053C23.1789 14 24 13.2417 24 12.25V1.75C24 0.758333 23.1158 0 22.1053 0Z" fill="black"/>
<path d="M22.1055 0.583313C22.8003 0.583313 23.3687 1.10831 23.3687 1.74998V12.25C23.3687 12.8916 22.8003 13.4166 22.1055 13.4166H1.89499C1.20026 13.4166 0.631836 12.8916 0.631836 12.25V1.74998C0.631836 1.10831 1.20026 0.583313 1.89499 0.583313H22.1055Z" fill="#006FCF"/>
<path d="M5.66595 5.98969L6.15479 7.08402H5.18089L5.66595 5.98969ZM15.8186 6.03519H13.9384V6.5176H15.7883V7.24035H13.9422V7.77819H15.8224V8.20927L17.1342 6.89969L15.8224 5.53469L15.8186 6.03519ZM6.93668 4.67019H9.45984L10.0201 5.79894L10.5392 4.66669H17.0887L17.7695 5.36085L18.4737 4.66669H21.4819L19.2594 6.91369L21.4592 9.14669H18.4062L17.7253 8.45252L17.0148 9.14669H6.33479L6.02279 8.45252H5.3091L4.99647 9.14669H2.52637L4.60174 4.66669H6.76805L6.93668 4.67019ZM12.4081 5.29902H10.9939L10.0466 7.36169L9.02026 5.29902H7.61689V8.10485L6.31584 5.29902H5.0571L3.55268 8.51435H4.53479L4.84679 7.82019H6.48637L6.79837 8.51435H8.51626V6.21894L9.62216 8.51785H10.3737L11.4727 6.22594V8.51844H12.3935L12.4087 5.29844L12.4081 5.29902ZM18.307 6.91369L19.9055 5.29902H18.7548L17.7436 6.30585L16.7659 5.29902H13.0434V8.51785H16.7129L17.7323 7.50402L18.7099 8.51785H19.8942L18.3076 6.91369H18.307Z" fill="white"/>
</g>
<defs>
<clipPath id="clip0_78_485">
<rect width="24" height="14" fill="white"/>
</clipPath>
</defs>
</svg>
