<svg width="24" height="14" viewBox="0 0 24 14" fill="none" xmlns="http://www.w3.org/2000/svg">
<g clip-path="url(#clip0_78_479)">
<path d="M21.7179 0H2.28151C2.20054 0 2.11944 0 2.03861 0.000396357C1.97038 0.000924834 1.90229 0.00158543 1.83406 0.00330298C1.68543 0.00700231 1.53552 0.0151937 1.38876 0.0395036C1.24157 0.0627948 1.09896 0.10621 0.965625 0.16832C0.69758 0.29424 0.479708 0.495468 0.343374 0.743038C0.276007 0.866234 0.228996 0.998053 0.203904 1.13411C0.177297 1.2698 0.168571 1.40813 0.164566 1.54526C0.162823 1.60823 0.161774 1.67121 0.161419 1.7342C0.161133 1.80871 0.161133 1.88349 0.161133 1.9584V12.0415C0.161133 12.1164 0.161133 12.191 0.161419 12.2659C0.161848 12.3288 0.162706 12.3918 0.164566 12.4549C0.168571 12.5917 0.17744 12.7302 0.203904 12.8658C0.228944 13.0018 0.275908 13.1336 0.343231 13.2568C0.410918 13.3799 0.49927 13.4922 0.605005 13.5898C0.71056 13.6875 0.832232 13.7691 0.965482 13.8315C1.10095 13.8954 1.2397 13.9359 1.3889 13.9606C1.53552 13.9848 1.68543 13.993 1.83406 13.9967C1.90229 13.9981 1.97038 13.9989 2.03861 13.9993C2.11944 13.9999 2.20054 13.9999 2.28151 13.9999H21.7179C21.7987 13.9999 21.8798 13.9999 21.9607 13.9993C22.0288 13.9991 22.0968 13.9981 22.1654 13.9967C22.3137 13.993 22.4636 13.9848 22.6107 13.9606C22.7579 13.9373 22.9005 13.8938 23.0338 13.8315C23.3017 13.7055 23.5195 13.5043 23.6561 13.2568C23.7251 13.1317 23.7689 13.0036 23.7954 12.8658C23.822 12.7302 23.8306 12.5917 23.8346 12.4549C23.8364 12.3918 23.8374 12.3288 23.8377 12.2659C23.8383 12.191 23.8383 12.1164 23.8383 12.0415V1.95853C23.8383 1.88362 23.8383 1.80884 23.8377 1.73406C23.8374 1.67112 23.8364 1.60818 23.8346 1.54526C23.8306 1.40813 23.822 1.2698 23.7954 1.13411C23.7705 0.99803 23.7235 0.866193 23.6561 0.743038C23.5197 0.495512 23.3018 0.294299 23.0338 0.16832C22.9005 0.106274 22.7578 0.0629043 22.6107 0.0396357C22.4636 0.0151937 22.3137 0.00713443 22.1654 0.0034351C22.0971 0.00183478 22.0289 0.000865853 21.9607 0.000528476C21.8798 0 21.7987 0 21.7179 0Z" fill="#E4E4E4"/>
<path d="M21.7176 0.466675L21.9567 0.467071C22.0214 0.467468 22.0862 0.468128 22.1513 0.469714C22.2647 0.47262 22.3972 0.478301 22.5208 0.49878C22.628 0.516616 22.7182 0.5437 22.8046 0.584393C22.9775 0.665588 23.1179 0.795466 23.2057 0.955251C23.2494 1.03452 23.2786 1.11723 23.2979 1.21724C23.32 1.33007 23.3261 1.45281 23.3291 1.55811C23.331 1.61756 23.3318 1.67702 23.332 1.73779C23.3327 1.81138 23.3327 1.88484 23.3327 1.95856V12.0416C23.3327 12.1154 23.3327 12.1888 23.3321 12.2639C23.3318 12.3233 23.331 12.3828 23.3293 12.4422C23.3261 12.5474 23.32 12.6701 23.2976 12.7843C23.2814 12.8751 23.2503 12.9631 23.2054 13.0452C23.1175 13.205 22.9768 13.3349 22.8037 13.4161C22.7179 13.4565 22.628 13.4836 22.5218 13.5013C22.3957 13.522 22.2576 13.5277 22.1536 13.5303C22.0882 13.5317 22.0231 13.5326 21.9563 13.5329C21.8769 13.5334 21.7971 13.5334 21.7176 13.5334H2.278C2.19933 13.5334 2.12065 13.5334 2.04055 13.5329C1.97617 13.5326 1.9118 13.5318 1.84743 13.5305C1.74101 13.5278 1.60283 13.522 1.4778 13.5014C1.37896 13.4862 1.28317 13.4572 1.19371 13.4155C1.1079 13.3753 1.02958 13.3226 0.961692 13.2596C0.893589 13.1968 0.836712 13.1245 0.793184 13.0452C0.748231 12.9626 0.717076 12.8742 0.700776 12.7829C0.678461 12.6689 0.672167 12.5467 0.669306 12.4423C0.66769 12.3827 0.666736 12.323 0.666445 12.2633L0.666016 12.088V1.91232L0.666302 1.73726C0.666597 1.6775 0.667551 1.61773 0.669163 1.55798C0.67231 1.45334 0.678461 1.33113 0.700919 1.21619C0.717251 1.12514 0.748406 1.0369 0.793327 0.954459C0.836952 0.875183 0.893926 0.802806 0.962121 0.740029C1.03017 0.677076 1.10858 0.624459 1.19443 0.584129C1.28367 0.54272 1.37915 0.513948 1.47766 0.49878C1.60139 0.478301 1.734 0.47262 1.84758 0.469714C1.91213 0.468241 1.97669 0.46736 2.04126 0.467071L2.28115 0.466675H21.7176Z" fill="white"/>
<path d="M6.3852 4.72592C6.58603 4.49405 6.72221 4.18264 6.68631 3.8645C6.39249 3.87798 6.03402 4.04352 5.82632 4.27566C5.63993 4.47436 5.47499 4.79872 5.51791 5.10351C5.84777 5.12994 6.17735 4.95131 6.3852 4.72592ZM6.68259 5.1631C6.20339 5.13668 5.79628 5.41413 5.56755 5.41413C5.33867 5.41413 4.98835 5.17631 4.60942 5.18279C4.11634 5.18939 3.65888 5.44702 3.40855 5.85659C2.89387 6.67573 3.27265 7.89123 3.77332 8.55843C4.01635 8.88873 4.30931 9.25205 4.69525 9.23897C5.06002 9.22576 5.20292 9.02098 5.64608 9.02098C6.08909 9.02098 6.21783 9.23897 6.60392 9.23237C7.00416 9.22576 7.25449 8.90207 7.49753 8.57177C7.77647 8.19523 7.89047 7.83191 7.89763 7.81209C7.89047 7.80548 7.12575 7.53451 7.1186 6.72197C7.11144 6.04156 7.7191 5.71787 7.74771 5.69792C7.40455 5.22916 6.86841 5.17631 6.68245 5.1631" fill="black"/>
<path d="M11.4578 4.24237C12.4989 4.24237 13.224 4.90521 13.224 5.87021C13.224 6.83864 12.484 7.50492 11.4318 7.50492H10.2791V9.19816H9.44629V4.24237H11.4578ZM10.2791 6.85925H11.2347C11.9599 6.85925 12.3724 6.4987 12.3724 5.87365C12.3724 5.24872 11.9598 4.89147 11.2384 4.89147H10.2791V6.85925ZM13.4306 8.1712C13.4306 7.53584 13.9548 7.17185 14.9215 7.11689L15.9589 7.05849V6.78368C15.9589 6.38204 15.6727 6.16219 15.1633 6.16219C14.743 6.16219 14.438 6.3613 14.3751 6.66689H13.6238C13.6463 6.02479 14.3006 5.55775 15.1856 5.55775C16.1374 5.55775 16.7584 6.01792 16.7584 6.73229V9.19803H15.9888V8.60389H15.9702C15.7508 8.99192 15.2673 9.23568 14.743 9.23568C13.9697 9.23568 13.4306 8.80999 13.4306 8.1712ZM15.9589 7.85186V7.57362L15.0331 7.62858C14.5124 7.6595 14.2412 7.83799 14.2412 8.15045C14.2412 8.45274 14.5237 8.64854 14.9662 8.64854C15.5312 8.64854 15.9589 8.31534 15.9589 7.85186ZM17.466 10.5236V9.92957C17.5181 9.93631 17.6444 9.94318 17.7114 9.94318C18.0794 9.94318 18.2877 9.79917 18.4141 9.42804L18.4885 9.20833L17.0792 5.6024H17.9492L18.931 8.52831H18.9496L19.9311 5.6024H20.779L19.3176 9.39026C18.9829 10.2592 18.6 10.5443 17.7895 10.5443C17.7262 10.5443 17.5217 10.5374 17.466 10.5236Z" fill="black"/>
</g>
<defs>
<clipPath id="clip0_78_479">
<rect width="24" height="14" fill="white"/>
</clipPath>
</defs>
</svg>
