<svg width="22" height="16" viewBox="0 0 22 16" fill="none" xmlns="http://www.w3.org/2000/svg">
<path d="M21.1037 6.12172L19.9005 3.11391C19.8119 2.89016 19.6579 2.69832 19.4586 2.56342C19.2593 2.42852 19.024 2.35681 18.7834 2.35766H15.6406V1.5C15.6406 1.36325 15.5863 1.2321 15.4896 1.1354C15.3929 1.0387 15.2618 0.984375 15.125 0.984375H2.0625C1.74341 0.984375 1.43739 1.11113 1.21176 1.33676C0.986132 1.56239 0.859375 1.86841 0.859375 2.1875V11.8125C0.859375 12.1316 0.986132 12.4376 1.21176 12.6632C1.43739 12.8889 1.74341 13.0156 2.0625 13.0156H3.66094C3.77928 13.5984 4.09547 14.1224 4.55593 14.4988C5.01639 14.8751 5.5928 15.0807 6.1875 15.0807C6.7822 15.0807 7.35861 14.8751 7.81907 14.4988C8.27953 14.1224 8.59572 13.5984 8.71406 13.0156H13.2859C13.4043 13.5984 13.7205 14.1224 14.1809 14.4988C14.6414 14.8751 15.2178 15.0807 15.8125 15.0807C16.4072 15.0807 16.9836 14.8751 17.4441 14.4988C17.9045 14.1224 18.2207 13.5984 18.3391 13.0156H19.9375C20.2566 13.0156 20.5626 12.8889 20.7882 12.6632C21.0139 12.4376 21.1406 12.1316 21.1406 11.8125V6.3125C21.1405 6.24714 21.128 6.1824 21.1037 6.12172ZM15.6406 3.39062H18.7842C18.8186 3.39059 18.8523 3.4009 18.8808 3.4202C18.9093 3.43951 18.9313 3.46693 18.9441 3.49891L19.8636 5.79688H15.6406V3.39062ZM1.89062 2.1875C1.89062 2.14192 1.90873 2.0982 1.94097 2.06597C1.9732 2.03373 2.01692 2.01562 2.0625 2.01562H14.6094V7.85938H1.89062V2.1875ZM6.1875 14.0469C5.88156 14.0469 5.58248 13.9562 5.3281 13.7862C5.07372 13.6162 4.87545 13.3746 4.75837 13.092C4.64129 12.8093 4.61066 12.4983 4.67035 12.1982C4.73003 11.8982 4.87736 11.6225 5.09369 11.4062C5.31003 11.1899 5.58566 11.0425 5.88572 10.9828C6.18578 10.9232 6.49681 10.9538 6.77946 11.0709C7.06212 11.188 7.30371 11.3862 7.47368 11.6406C7.64365 11.895 7.73438 12.1941 7.73438 12.5C7.73438 12.9103 7.5714 13.3037 7.28131 13.5938C6.99121 13.8839 6.59776 14.0469 6.1875 14.0469ZM13.2859 11.9844H8.71406C8.59572 11.4016 8.27953 10.8776 7.81907 10.5012C7.35861 10.1249 6.7822 9.91929 6.1875 9.91929C5.5928 9.91929 5.01639 10.1249 4.55593 10.5012C4.09547 10.8776 3.77928 11.4016 3.66094 11.9844H2.0625C2.01692 11.9844 1.9732 11.9663 1.94097 11.934C1.90873 11.9018 1.89062 11.8581 1.89062 11.8125V8.89062H14.6094V10.2209C14.2725 10.3992 13.9792 10.6497 13.7504 10.9546C13.5216 11.2594 13.363 11.6111 13.2859 11.9844ZM15.8125 14.0469C15.5066 14.0469 15.2075 13.9562 14.9531 13.7862C14.6987 13.6162 14.5005 13.3746 14.3834 13.092C14.2663 12.8093 14.2357 12.4983 14.2953 12.1982C14.355 11.8982 14.5024 11.6225 14.7187 11.4062C14.935 11.1899 15.2107 11.0425 15.5107 10.9828C15.8108 10.9232 16.1218 10.9538 16.4045 11.0709C16.6871 11.188 16.9287 11.3862 17.0987 11.6406C17.2687 11.895 17.3594 12.1941 17.3594 12.5C17.3594 12.9103 17.1964 13.3037 16.9063 13.5938C16.6162 13.8839 16.2228 14.0469 15.8125 14.0469ZM20.1094 11.8125C20.1094 11.8581 20.0913 11.9018 20.059 11.934C20.0268 11.9663 19.9831 11.9844 19.9375 11.9844H18.3391C18.2194 11.4024 17.9028 10.8795 17.4426 10.5038C16.9823 10.1281 16.4066 9.92256 15.8125 9.92188C15.7549 9.92188 15.6973 9.92188 15.6406 9.92789V6.82812H20.1094V11.8125Z" fill="white"/>
</svg>
