<svg width="19" height="20" viewBox="0 0 19 20" fill="none" xmlns="http://www.w3.org/2000/svg">
<path d="M7.80657 1.08629L8.89557 1.51529C9.28403 1.66823 9.71601 1.66823 10.1045 1.51529L11.1935 1.08629C11.8346 0.834156 12.5485 0.840587 13.1849 1.10423C13.8214 1.36788 14.3307 1.86817 14.6057 2.49979L15.0721 3.57229C15.2386 3.95505 15.544 4.26046 15.9268 4.42699L16.9993 4.89339C17.6312 5.16839 18.1317 5.6779 18.3953 6.3146C18.659 6.95129 18.6652 7.66547 18.4128 8.30669L17.9838 9.39569C17.8311 9.78382 17.8311 10.2154 17.9838 10.6035L18.4128 11.6925C18.6649 12.3336 18.6585 13.0475 18.3948 13.6839C18.1312 14.3204 17.6309 14.8297 16.9993 15.1047L15.9268 15.5711C15.544 15.7375 15.2385 16.043 15.0721 16.4258L14.6057 17.4983C14.3307 18.1302 13.8212 18.6307 13.1845 18.8943C12.5478 19.158 11.8336 19.1643 11.1924 18.9118L10.1034 18.4828C9.71524 18.3301 9.2837 18.3301 8.89557 18.4828L7.80657 18.9118C7.16548 19.1639 6.45157 19.1575 5.81513 18.8939C5.17869 18.6302 4.66936 18.1299 4.39437 17.4983L3.92797 16.4258C3.76144 16.043 3.45603 15.7376 3.07327 15.5711L2.00077 15.1047C1.36888 14.8297 0.86839 14.3202 0.604724 13.6835C0.341057 13.0468 0.3348 12.3326 0.587271 11.6914L1.01627 10.6024C1.16892 10.2143 1.16892 9.78272 1.01627 9.39459L0.587271 8.30559C0.335133 7.66451 0.341564 6.9506 0.605209 6.31415C0.868855 5.67771 1.36915 5.16839 2.00077 4.89339L3.07327 4.42699C3.45603 4.26046 3.76144 3.95505 3.92797 3.57229L4.39437 2.49979C4.66936 1.86791 5.17887 1.36741 5.81557 1.10375C6.45227 0.840081 7.16645 0.833824 7.80767 1.08629H7.80657ZM11.5961 2.10929L10.5071 2.53829C9.85986 2.79299 9.14018 2.79299 8.49297 2.53829L7.40397 2.10929C7.02797 1.9615 6.6093 1.96536 6.23609 2.12006C5.86288 2.27476 5.56425 2.56824 5.40307 2.93869L4.93667 4.01119C4.65911 4.64912 4.15009 5.15814 3.51217 5.43569L2.43967 5.90209C2.06914 6.06348 1.77572 6.36237 1.62121 6.73582C1.46671 7.10926 1.46318 7.5281 1.61137 7.90409L2.03927 8.99199C2.29397 9.6392 2.29397 10.3589 2.03927 11.0061L1.61027 12.0951C1.30337 12.8761 1.66967 13.7605 2.43967 14.096L3.51217 14.5624C4.15009 14.84 4.65911 15.349 4.93667 15.9869L5.40307 17.0594C5.56445 17.4299 5.86335 17.7233 6.23679 17.8779C6.61024 18.0324 7.02908 18.0359 7.40507 17.8877L8.49297 17.4587C9.14018 17.204 9.85986 17.204 10.5071 17.4587L11.5961 17.8877C12.3771 18.1957 13.2615 17.8294 13.597 17.0594L14.0634 15.9869C14.3409 15.349 14.8499 14.84 15.4879 14.5624L16.5604 14.096C16.9309 13.9346 17.2243 13.6357 17.3788 13.2623C17.5333 12.8888 17.5369 12.47 17.3887 12.094L16.9597 11.0061C16.705 10.3589 16.705 9.6392 16.9597 8.99199L17.3887 7.90299C17.5365 7.52713 17.5328 7.10857 17.3783 6.73538C17.2239 6.36219 16.9306 6.06347 16.5604 5.90209L15.4879 5.43569C14.8499 5.15814 14.3409 4.64912 14.0634 4.01119L13.597 2.93869C13.4356 2.56817 13.1367 2.27474 12.7632 2.12024C12.3898 1.96573 11.971 1.9622 11.595 2.11039L11.5961 2.10929ZM8.37637 11.9477L12.3892 7.43329C12.4807 7.33197 12.6067 7.26834 12.7426 7.25478C12.8785 7.24123 13.0146 7.27872 13.1244 7.35995C13.2342 7.44119 13.3098 7.56037 13.3366 7.69429C13.3633 7.82821 13.3393 7.9673 13.2692 8.08449L13.2109 8.16479L8.81087 13.1148C8.72208 13.2146 8.6 13.2787 8.46741 13.2951C8.33482 13.3115 8.2008 13.2791 8.09037 13.2039L8.01117 13.1379L5.81117 10.9379C5.71373 10.8409 5.65616 10.7109 5.6498 10.5735C5.64344 10.4362 5.68876 10.3014 5.77682 10.1959C5.86489 10.0903 5.98931 10.0215 6.12557 10.0031C6.26183 9.98466 6.40004 10.018 6.51297 10.0964L6.58887 10.1602L8.37637 11.9477Z" fill="white"/>
</svg>
