<svg width="24" height="14" viewBox="0 0 24 14" fill="none" xmlns="http://www.w3.org/2000/svg">
<g clip-path="url(#clip0_78_470)">
<path opacity="0.07" d="M22.1053 0H1.89474C0.821053 0 0 0.758333 0 1.75V12.25C0 13.2417 0.88421 14 1.89474 14H22.1053C23.1789 14 24 13.2417 24 12.25V1.75C24 0.758333 23.1158 0 22.1053 0Z" fill="black"/>
<path d="M22.1055 0.583313C22.8003 0.583313 23.3687 1.10831 23.3687 1.74998V12.25C23.3687 12.8916 22.8003 13.4166 22.1055 13.4166H1.89499C1.20026 13.4166 0.631836 12.8916 0.631836 12.25V1.74998C0.631836 1.10831 1.20026 0.583313 1.89499 0.583313H22.1055Z" fill="white"/>
<path d="M11.4271 6.98607V8.85274H10.7842V4.24441H12.4838C12.6874 4.24122 12.8897 4.27525 13.0791 4.34452C13.2684 4.4138 13.4411 4.51696 13.5871 4.64807C13.7255 4.7673 13.837 4.91055 13.9154 5.06961C13.9937 5.22868 14.0374 5.40045 14.0438 5.57511C14.0503 5.74977 14.0194 5.92389 13.953 6.08752C13.8865 6.25115 13.7858 6.40108 13.6566 6.52874L13.5871 6.59641C13.2903 6.85716 12.8937 6.99891 12.4838 6.98957L11.4271 6.98607ZM11.4271 4.80907V6.43541H12.4995C12.7377 6.44241 12.9675 6.35666 13.1343 6.19974C13.2536 6.08492 13.3336 5.94025 13.3646 5.78373C13.3955 5.6272 13.376 5.46573 13.3083 5.31939C13.2407 5.17305 13.1279 5.04832 12.9841 4.96069C12.8403 4.87307 12.6718 4.82643 12.4995 4.82657L11.4271 4.80907ZM15.5223 5.59541C15.9328 5.57791 16.3345 5.70507 16.6452 5.95299C16.9263 6.20382 17.076 6.55382 17.0558 6.91491V8.85974H16.4438V8.41291H16.4128C16.3031 8.5805 16.1479 8.71875 15.9625 8.81399C15.7772 8.90924 15.5682 8.95818 15.3562 8.95599C15.01 8.96634 14.6724 8.85526 14.4113 8.64507C14.2876 8.55187 14.1885 8.43391 14.1214 8.30011C14.0543 8.1663 14.0211 8.02016 14.0242 7.87274C14.0169 7.72375 14.0482 7.57531 14.1156 7.43976C14.1829 7.30421 14.2843 7.18547 14.4113 7.09341C14.723 6.88642 15.1001 6.78076 15.4838 6.79299C15.8103 6.78132 16.1343 6.84724 16.4248 6.98607V6.86474C16.4269 6.76442 16.4043 6.66497 16.3587 6.57391C16.3131 6.48286 16.2456 6.40258 16.1614 6.33916C15.9924 6.1972 15.7709 6.1204 15.5425 6.12449C15.3766 6.12304 15.213 6.16069 15.0673 6.23388C14.9215 6.30706 14.7983 6.41336 14.7094 6.54274L14.1442 6.21374C14.2977 6.01062 14.5049 5.84717 14.7461 5.73894C14.9873 5.6307 15.2545 5.58129 15.5223 5.59541ZM14.7094 7.88674C14.7079 7.96229 14.7265 8.03703 14.7637 8.10437C14.8008 8.17171 14.8552 8.22959 14.9223 8.27291C15.0631 8.37557 15.2381 8.42982 15.4181 8.42632C15.689 8.42574 15.9486 8.32716 16.1419 8.15099C16.3345 7.98416 16.4438 7.75141 16.4438 7.50757C16.2006 7.34792 15.9052 7.27084 15.6075 7.28941C15.3764 7.281 15.1485 7.3411 14.957 7.46091C14.8812 7.50776 14.819 7.57109 14.7758 7.64534C14.7326 7.71958 14.7098 7.80247 14.7094 7.88674ZM20.5743 5.69924L18.4332 10.2434H17.7713L18.5804 8.65207L17.1758 5.69924H17.8724L18.8905 7.96549L19.8814 5.69924H20.5743Z" fill="#5F6368"/>
<path d="M8.8337 6.58238C8.8337 6.40272 8.81855 6.22305 8.7876 6.04572H6.07812V7.0648H7.62613C7.59461 7.22676 7.52802 7.38117 7.43035 7.5188C7.33267 7.65642 7.20593 7.77441 7.0577 7.86572V8.52722H7.98234C8.26348 8.27597 8.4845 7.97309 8.63113 7.63812C8.77777 7.30314 8.84678 6.9435 8.8337 6.58238Z" fill="#4285F4"/>
<path d="M6.08064 9.17043C6.77937 9.18814 7.45916 8.95932 7.98169 8.53051L7.0558 7.86551C6.83333 7.99726 6.58126 8.08041 6.31876 8.10865C6.05626 8.13689 5.79025 8.10948 5.54095 8.02849C5.29165 7.9475 5.06562 7.81507 4.88007 7.64127C4.69451 7.46747 4.55431 7.25688 4.47012 7.02551H3.52148V7.70801C3.75886 8.14728 4.12404 8.51679 4.57607 8.7751C5.02809 9.03341 5.54909 9.1703 6.08064 9.17043Z" fill="#34A853"/>
<path d="M4.47111 7.02936C4.35098 6.70112 4.35098 6.34552 4.47111 6.01728V5.33478H3.52248C3.32024 5.70313 3.21484 6.11032 3.21484 6.52332C3.21484 6.93632 3.32024 7.34351 3.52248 7.71186L4.47111 7.02936Z" fill="#FFC000"/>
<path d="M6.08064 4.92359C6.48928 4.91669 6.8843 5.05927 7.17959 5.32025L8.00064 4.566C7.47712 4.11218 6.78274 3.86464 6.06485 3.87592C5.53645 3.87837 5.01911 4.01592 4.57018 4.27333C4.12125 4.53074 3.75827 4.89795 3.52148 5.33425L4.47012 6.01734C4.58104 5.70238 4.79607 5.42747 5.08496 5.23128C5.37386 5.03508 5.72208 4.92747 6.08064 4.92359Z" fill="#EA4335"/>
</g>
<defs>
<clipPath id="clip0_78_470">
<rect width="24" height="14" fill="white"/>
</clipPath>
</defs>
</svg>
