<svg width="20" height="18" viewBox="0 0 20 18" fill="none" xmlns="http://www.w3.org/2000/svg">
<path d="M9.93143 15.1698L10.002 15.234L10.0694 15.1665L10.1593 15.0766C12.3384 13.1035 14.1537 11.4584 15.4234 9.97481C16.6925 8.4919 17.432 7.15316 17.432 5.79167C17.432 3.9031 16.0123 2.48333 14.1237 2.48333C12.6972 2.48333 11.3065 3.39227 10.7837 4.64667H9.21369C8.69089 3.39227 7.30021 2.48333 5.8737 2.48333C3.98514 2.48333 2.56536 3.9031 2.56536 5.79167C2.56536 7.15315 3.30486 8.49188 4.5728 9.97478C5.84152 11.4586 7.65483 13.1039 9.82972 15.0774L9.8306 15.0782L9.83067 15.0782L9.93143 15.1698ZM9.92281 2.72179L9.9987 2.81021L10.0746 2.72179C11.0555 1.57895 12.5589 0.85 14.1237 0.85C16.8919 0.85 19.0654 3.01451 19.0654 5.79167C19.0654 7.48671 18.3019 9.03679 16.9395 10.7036C15.576 12.3717 13.6231 14.1446 11.2607 16.2868L11.2605 16.2869L9.9987 17.4356L8.73685 16.2869L8.73671 16.2868C6.37432 14.1446 4.4214 12.3717 3.0579 10.7036C1.69549 9.03679 0.932031 7.48671 0.932031 5.79167C0.932031 3.01451 3.10547 0.85 5.8737 0.85C7.43847 0.85 8.94194 1.57895 9.92281 2.72179Z" fill="white" stroke="white" stroke-width="0.2"/>
</svg>
