<svg width="24" height="14" viewBox="0 0 24 14" fill="none" xmlns="http://www.w3.org/2000/svg">
<g clip-path="url(#clip0_78_463)">
<path opacity="0.07" d="M22.1053 0H1.89474C0.821053 0 0 0.758333 0 1.75V12.25C0 13.2417 0.88421 14 1.89474 14H22.1053C23.1789 14 24 13.2417 24 12.25V1.75C24 0.758333 23.1158 0 22.1053 0Z" fill="black"/>
<path d="M22.1055 0.583313C22.8003 0.583313 23.3687 1.10831 23.3687 1.74998V12.25C23.3687 12.8916 22.8003 13.4166 22.1055 13.4166H1.89499C1.20026 13.4166 0.631836 12.8916 0.631836 12.25V1.74998C0.631836 1.10831 1.20026 0.583313 1.89499 0.583313H22.1055Z" fill="white"/>
<path d="M9.47366 11.0834C11.9153 11.0834 13.8947 9.25518 13.8947 7.00002C13.8947 4.74486 11.9153 2.91669 9.47366 2.91669C7.03198 2.91669 5.05261 4.74486 5.05261 7.00002C5.05261 9.25518 7.03198 11.0834 9.47366 11.0834Z" fill="#EB001B"/>
<path d="M14.5265 11.0834C16.9682 11.0834 18.9476 9.25518 18.9476 7.00002C18.9476 4.74486 16.9682 2.91669 14.5265 2.91669C12.0848 2.91669 10.1055 4.74486 10.1055 7.00002C10.1055 9.25518 12.0848 11.0834 14.5265 11.0834Z" fill="#FFC000"/>
<path d="M13.8949 6.99999C13.8949 5.59999 13.137 4.37499 12.0002 3.67499C10.8634 4.43332 10.1055 5.65832 10.1055 6.99999C10.1055 8.34165 10.8634 9.62499 12.0002 10.325C13.137 9.62499 13.8949 8.39999 13.8949 6.99999Z" fill="#FF5F00"/>
</g>
<defs>
<clipPath id="clip0_78_463">
<rect width="24" height="14" fill="white"/>
</clipPath>
</defs>
</svg>
