<svg width="18" height="22" viewBox="0 0 18 22" fill="none" xmlns="http://www.w3.org/2000/svg">
<path d="M10.5562 3.9985C10.6593 3.89536 10.7173 3.75549 10.7173 3.60965C10.7173 3.46381 10.6593 3.32394 10.5562 3.2208L8.22314 0.887698C8.1194 0.787511 7.98047 0.732075 7.83626 0.733328C7.69206 0.734581 7.55411 0.792424 7.45214 0.894398C7.35016 0.996373 7.29232 1.13432 7.29106 1.27853C7.28981 1.42274 7.34525 1.56167 7.44544 1.6654L8.54214 2.7621C6.85129 2.85608 5.23032 3.46813 3.89932 4.51513C2.56831 5.56214 1.59175 6.99338 1.10221 8.61454C0.612683 10.2357 0.6339 11.9682 1.16298 13.5769C1.69207 15.1856 2.70339 16.5925 4.05963 17.6066C4.17633 17.6941 4.32301 17.7317 4.46742 17.7111C4.61182 17.6904 4.74211 17.6133 4.82964 17.4966C4.91716 17.3799 4.95474 17.2332 4.93411 17.0888C4.91348 16.9444 4.83633 16.8141 4.71964 16.7266C3.41064 15.7481 2.47637 14.3507 2.07242 12.7671C1.66847 11.1835 1.81922 9.50929 2.49956 8.02332C3.17991 6.53736 4.34879 5.32932 5.81153 4.60039C7.27427 3.87146 8.94259 3.66564 10.5386 4.0172L10.5562 3.9985ZM7.44544 17.9993L7.46304 17.9817C7.91184 18.0807 8.37714 18.1357 8.85344 18.1467L8.84684 18.1533C8.87382 18.1498 8.90103 18.1484 8.92824 18.1489C10.4361 18.1646 11.9104 17.703 13.1402 16.8304C14.3701 15.9577 15.2925 14.7185 15.7756 13.29C16.2587 11.8615 16.2778 10.3168 15.8302 8.87676C15.3825 7.43674 14.491 6.17513 13.2831 5.2723C13.2254 5.22896 13.1767 5.17467 13.1399 5.11252C13.1031 5.05037 13.0789 4.98158 13.0687 4.91008C13.0584 4.83858 13.0624 4.76577 13.0803 4.6958C13.0983 4.62583 13.1298 4.56008 13.1731 4.5023C13.2165 4.44452 13.2708 4.39584 13.3329 4.35904C13.3951 4.32224 13.4639 4.29804 13.5354 4.28783C13.6069 4.27761 13.6797 4.28158 13.7496 4.29951C13.8196 4.31743 13.8854 4.34896 13.9431 4.3923C15.2994 5.4064 16.3107 6.81329 16.8398 8.42198C17.3689 10.0307 17.3901 11.7632 16.9006 13.3844C16.411 15.0055 15.4345 16.4368 14.1035 17.4838C12.7724 18.5308 11.1515 19.1428 9.46064 19.2368L10.5562 20.3324C10.6088 20.3831 10.6507 20.4438 10.6795 20.5109C10.7083 20.578 10.7235 20.6502 10.7241 20.7232C10.7248 20.7963 10.7108 20.8687 10.6832 20.9363C10.6555 21.0039 10.6147 21.0653 10.5631 21.1169C10.5114 21.1686 10.45 21.2094 10.3824 21.2371C10.3148 21.2647 10.2424 21.2786 10.1694 21.278C10.0963 21.2774 10.0242 21.2622 9.95706 21.2334C9.88996 21.2045 9.82927 21.1626 9.77853 21.1101L7.44544 18.7781C7.39422 18.727 7.35358 18.6663 7.32585 18.5995C7.29812 18.5327 7.28385 18.461 7.28385 18.3887C7.28385 18.3164 7.29812 18.2447 7.32585 18.1779C7.35358 18.1111 7.39422 18.0504 7.44544 17.9993ZM11.5902 8.9595C11.6415 9.01059 11.6821 9.07128 11.7098 9.1381C11.7375 9.20492 11.7518 9.27655 11.7518 9.3489C11.7518 9.42124 11.7375 9.49288 11.7098 9.5597C11.6821 9.62652 11.6415 9.68721 11.5902 9.7383L8.29024 13.0383C8.23915 13.0895 8.17845 13.1302 8.11163 13.1579C8.04481 13.1856 7.97318 13.1999 7.90084 13.1999C7.82849 13.1999 7.75686 13.1856 7.69004 13.1579C7.62322 13.1302 7.56253 13.0895 7.51144 13.0383L5.86143 11.3883C5.75816 11.285 5.70014 11.145 5.70014 10.9989C5.70014 10.8528 5.75816 10.7128 5.86143 10.6095C5.96471 10.5062 6.10478 10.4482 6.25083 10.4482C6.39689 10.4482 6.53696 10.5062 6.64024 10.6095L7.90084 11.8712L10.8114 8.9595C10.8625 8.90828 10.9232 8.86764 10.99 8.83991C11.0569 8.81219 11.1285 8.79792 11.2008 8.79792C11.2732 8.79792 11.3448 8.81219 11.4116 8.83991C11.4785 8.86764 11.5391 8.90828 11.5902 8.9595ZM3.50084 11C3.50084 9.54131 4.0803 8.14236 5.11175 7.11091C6.1432 6.07946 7.54214 5.5 9.00084 5.5C10.4595 5.5 11.8585 6.07946 12.8899 7.11091C13.9214 8.14236 14.5008 9.54131 14.5008 11C14.5008 12.4587 13.9214 13.8576 12.8899 14.8891C11.8585 15.9205 10.4595 16.5 9.00084 16.5C7.54214 16.5 6.1432 15.9205 5.11175 14.8891C4.0803 13.8576 3.50084 12.4587 3.50084 11ZM9.00084 6.6C7.83388 6.6 6.71473 7.06357 5.88956 7.88873C5.0644 8.71389 4.60084 9.83305 4.60084 11C4.60084 12.167 5.0644 13.2861 5.88956 14.1113C6.71473 14.9364 7.83388 15.4 9.00084 15.4C10.1678 15.4 11.2869 14.9364 12.1121 14.1113C12.9373 13.2861 13.4008 12.167 13.4008 11C13.4008 9.83305 12.9373 8.71389 12.1121 7.88873C11.2869 7.06357 10.1678 6.6 9.00084 6.6Z" fill="white"/>
</svg>
