<svg width="24" height="14" viewBox="0 0 24 14" fill="none" xmlns="http://www.w3.org/2000/svg">
<g clip-path="url(#clip0_78_451)">
<path opacity="0.07" d="M22.1053 0H1.89474C0.821053 0 0 0.758333 0 1.75V12.25C0 13.2417 0.88421 14 1.89474 14H22.1053C23.1789 14 24 13.2417 24 12.25V1.75C24 0.758333 23.1158 0 22.1053 0Z" fill="black"/>
<path d="M22.1055 0.583313C22.8003 0.583313 23.3687 1.10831 23.3687 1.74998V12.25C23.3687 12.8916 22.8003 13.4166 22.1055 13.4166H1.89499C1.20026 13.4166 0.631836 12.8916 0.631836 12.25V1.74998C0.631836 1.10831 1.20026 0.583313 1.89499 0.583313H22.1055Z" fill="#5A31F4"/>
<path d="M13.5037 5.66601C13.5037 6.63901 12.7603 7.33317 11.722 7.33317H10.7437C10.7276 7.3334 10.7118 7.33792 10.6984 7.3462C10.6849 7.35447 10.6744 7.36616 10.6679 7.37984C10.6638 7.38889 10.6616 7.3986 10.6616 7.40842V8.68709C10.6616 8.69702 10.6595 8.70686 10.6553 8.71602C10.6512 8.72519 10.6452 8.73351 10.6375 8.74051C10.6299 8.7475 10.6208 8.75304 10.6109 8.75678C10.6009 8.76053 10.5903 8.76242 10.5795 8.76234H9.89487C9.8731 8.76234 9.85221 8.75435 9.83682 8.74013C9.82142 8.72591 9.81277 8.70662 9.81277 8.68651V4.07526C9.81251 4.06023 9.8172 4.04549 9.82623 4.03299C9.83525 4.02049 9.84818 4.01082 9.86329 4.00526C9.8733 4.00139 9.88403 3.99941 9.89487 3.99942H11.7265C12.7603 3.99942 13.5037 4.69359 13.5037 5.66659V5.66601ZM12.6498 5.66601C12.6498 5.10718 12.2342 4.69884 11.6709 4.69884H10.7437C10.7329 4.69884 10.7223 4.7008 10.7123 4.70461C10.7023 4.70842 10.6933 4.71401 10.6857 4.72105C10.678 4.72809 10.672 4.73645 10.6679 4.74565C10.6637 4.75486 10.6616 4.76472 10.6616 4.77468V6.55384C10.6615 6.56382 10.6636 6.57371 10.6677 6.58294C10.6718 6.59216 10.6779 6.60052 10.6856 6.60751C10.6932 6.61457 10.7023 6.62017 10.7123 6.62398C10.7222 6.62778 10.7329 6.62972 10.7437 6.62967H11.6709C12.2342 6.63259 12.6498 6.22426 12.6498 5.66601ZM13.7071 7.87742C13.6999 7.72798 13.7335 7.57926 13.8049 7.445C13.8764 7.31073 13.9832 7.19524 14.1157 7.10917C14.3829 6.92484 14.8003 6.82917 15.4136 6.80934L16.066 6.78834V6.61159C16.066 6.25751 15.8071 6.10817 15.3915 6.10817C14.9759 6.10817 14.7126 6.24292 14.6526 6.46401C14.6474 6.47954 14.6369 6.49309 14.6227 6.50257C14.6084 6.51206 14.5912 6.51695 14.5736 6.51651H13.9281C13.9104 6.51672 13.893 6.5116 13.8787 6.50193C13.8643 6.49225 13.8537 6.47854 13.8486 6.46284C13.8451 6.45245 13.8443 6.44149 13.846 6.43076C13.942 5.90692 14.417 5.50909 15.4212 5.50909C16.4898 5.50909 16.8757 5.96584 16.8757 6.83676V8.68709C16.8756 8.6971 16.8734 8.70699 16.8692 8.7162C16.8649 8.72541 16.8587 8.73376 16.851 8.74075C16.8432 8.74775 16.8341 8.75326 16.824 8.75696C16.8139 8.76067 16.8032 8.7625 16.7923 8.76234H16.1418C16.12 8.76234 16.0992 8.75435 16.0838 8.74013C16.0684 8.72591 16.0597 8.70662 16.0597 8.68651V8.54884C16.0599 8.53742 16.0563 8.52621 16.0495 8.51673C16.0426 8.50724 16.0327 8.49992 16.0212 8.49576C16.0098 8.49161 15.9973 8.49062 15.9853 8.4929C15.9733 8.49518 15.9623 8.50063 15.9536 8.50859C15.7578 8.70343 15.4433 8.84401 14.9387 8.84401C14.1966 8.84401 13.7071 8.48992 13.7071 7.87742ZM16.066 7.47668V7.33317L15.2203 7.37401C14.7751 7.39501 14.5161 7.56417 14.5161 7.85001C14.5161 8.10901 14.7536 8.25251 15.1692 8.25251C15.7332 8.25251 16.066 7.97251 16.066 7.47668ZM17.5288 10.16V9.62392C17.5289 9.61269 17.5318 9.60163 17.5371 9.59154C17.5425 9.58145 17.5502 9.57259 17.5597 9.56559C17.5692 9.55854 17.5802 9.55347 17.5919 9.55075C17.6037 9.54803 17.616 9.54772 17.6279 9.54984C17.7277 9.56676 17.8288 9.57551 17.9305 9.57551C18.1046 9.58432 18.2769 9.5387 18.4196 9.44599C18.5622 9.35328 18.6669 9.2189 18.7168 9.06451L18.7591 8.94143C18.7654 8.92481 18.7654 8.90671 18.7591 8.89009L17.4043 5.69868C17.3965 5.68116 17.396 5.66156 17.403 5.64375C17.4101 5.62593 17.424 5.61119 17.4422 5.60242C17.4543 5.59655 17.4678 5.59354 17.4814 5.59367H18.1382C18.1551 5.59372 18.1715 5.59848 18.1854 5.60733C18.1993 5.61618 18.2099 5.62871 18.2159 5.64326L19.1355 7.89434C19.1412 7.90945 19.1519 7.92254 19.166 7.93175C19.1802 7.94096 19.1971 7.94583 19.2145 7.94568C19.2317 7.94566 19.2486 7.94072 19.2627 7.93153C19.2768 7.92234 19.2876 7.90936 19.2934 7.89434L20.0923 5.64968C20.0978 5.6342 20.1084 5.62074 20.1227 5.61129C20.1371 5.60183 20.1543 5.59689 20.1719 5.59718H20.8515C20.8719 5.59729 20.8916 5.60419 20.9069 5.61662C20.9222 5.62906 20.9321 5.64618 20.9349 5.66484C20.9364 5.67729 20.9347 5.68989 20.9298 5.70159L19.4803 9.24593C19.1469 10.0702 18.5753 10.2802 17.9456 10.2802C17.8261 10.2832 17.7068 10.2703 17.5913 10.2417C17.5719 10.2373 17.5549 10.2266 17.5433 10.2117C17.5317 10.1967 17.5264 10.1783 17.5281 10.16H17.5288ZM5.41193 3.73342C4.55014 3.72748 3.7183 4.02516 3.08582 4.56584C3.05891 4.58845 3.04211 4.61953 3.03872 4.65298C3.03533 4.68643 3.0456 4.71985 3.0675 4.74667L3.45782 5.23609C3.47047 5.25259 3.48689 5.26632 3.50593 5.2763C3.52498 5.28627 3.54616 5.29225 3.56799 5.29381C3.58981 5.29537 3.61174 5.29247 3.63222 5.28532C3.65269 5.27817 3.67121 5.26693 3.68645 5.25242C3.91377 5.04394 4.18374 4.87932 4.48062 4.76815C4.77751 4.65699 5.09538 4.6015 5.41572 4.60492C6.75466 4.60492 7.45382 5.52892 7.45382 6.44242C7.45382 7.43409 6.71929 8.13293 5.66329 8.14634C4.84729 8.14634 4.23214 7.65051 4.23214 6.99484C4.23284 6.82905 4.27363 6.66549 4.35154 6.51612C4.42945 6.36675 4.54251 6.23535 4.68245 6.13151C4.71225 6.10893 4.73116 6.07639 4.73507 6.04098C4.73897 6.00557 4.72755 5.97017 4.70329 5.94251L4.29277 5.46709C4.28037 5.45247 4.26491 5.44032 4.2473 5.43137C4.22969 5.42242 4.2103 5.41685 4.1903 5.415C4.17029 5.41314 4.15009 5.41505 4.13091 5.42059C4.11172 5.42613 4.09395 5.43521 4.07866 5.44726C3.82723 5.63354 3.62398 5.8693 3.48372 6.13734C3.34396 6.40479 3.27121 6.69787 3.27087 6.99484C3.27087 8.12359 4.31614 9.00851 5.65508 9.01551H5.67403C7.26371 8.99684 8.41319 7.91651 8.41319 6.44009C8.41319 5.12934 7.36035 3.73342 5.41193 3.73342Z" fill="white"/>
</g>
<defs>
<clipPath id="clip0_78_451">
<rect width="24" height="14" fill="white"/>
</clipPath>
</defs>
</svg>
