<svg width="16" height="15" viewBox="0 0 16 15" fill="none" xmlns="http://www.w3.org/2000/svg">
<path d="M14.9636 5.2066L10.5005 4.55797L8.5054 0.513245C8.4509 0.402503 8.36126 0.312854 8.25051 0.258362C7.97278 0.121253 7.63528 0.235511 7.49641 0.513245L5.50129 4.55797L1.03821 5.2066C0.915161 5.22418 0.802661 5.28219 0.716528 5.37008C0.612398 5.47711 0.555018 5.6211 0.556995 5.77041C0.558973 5.91972 0.620147 6.06214 0.727075 6.16637L3.95618 9.31461L3.19329 13.7601C3.1754 13.8635 3.18684 13.9699 3.22632 14.0671C3.2658 14.1644 3.33173 14.2486 3.41665 14.3103C3.50156 14.3719 3.60206 14.4086 3.70674 14.4161C3.81142 14.4235 3.9161 14.4015 4.00891 14.3525L8.0009 12.2537L11.9929 14.3525C12.1019 14.4105 12.2284 14.4298 12.3497 14.4088C12.6556 14.356 12.8613 14.066 12.8085 13.7601L12.0456 9.31461L15.2747 6.16637C15.3626 6.08024 15.4206 5.96774 15.4382 5.84469C15.4857 5.53707 15.2712 5.25231 14.9636 5.2066Z" fill="#FFC000"/>
</svg>
