<svg width="24" height="14" viewBox="0 0 24 14" fill="none" xmlns="http://www.w3.org/2000/svg">
<g clip-path="url(#clip0_78_446)">
<path opacity="0.07" d="M22.1053 0H1.89474C0.821053 0 0 0.758333 0 1.75V12.25C0 13.2417 0.88421 14 1.89474 14H22.1053C23.1789 14 24 13.2417 24 12.25V1.75C24 0.758333 23.1158 0 22.1053 0Z" fill="black"/>
<path d="M22.1055 0.583313C22.8003 0.583313 23.3687 1.10831 23.3687 1.74998V12.25C23.3687 12.8916 22.8003 13.4166 22.1055 13.4166H1.89499C1.20026 13.4166 0.631836 12.8916 0.631836 12.25V1.74998C0.631836 1.10831 1.20026 0.583313 1.89499 0.583313H22.1055Z" fill="white"/>
<path d="M17.874 5.89169H17.6845C17.4319 6.47502 17.2424 6.76669 17.0529 7.64169H18.2529C18.0635 6.76669 18.0635 6.35835 17.874 5.89169ZM19.7056 9.33335H18.6319C18.5687 9.33335 18.5687 9.33335 18.5056 9.27502L18.3793 8.75002L18.3161 8.63335H16.8003C16.7372 8.63335 16.674 8.63335 16.674 8.75002L16.4845 9.27502C16.4845 9.33335 16.4214 9.33335 16.4214 9.33335H15.095L15.2214 9.04169L17.0529 5.07502C17.0529 4.78335 17.2424 4.66669 17.5582 4.66669H18.5056C18.5687 4.66669 18.6319 4.66669 18.6319 4.78335L19.5161 8.57502C19.5793 8.80835 19.6424 8.98335 19.6424 9.21669C19.7056 9.27502 19.7056 9.27502 19.7056 9.33335ZM11.2424 9.15835L11.495 8.10835C11.5582 8.10835 11.6214 8.16669 11.6214 8.16669C12.0635 8.34169 12.5056 8.45835 12.9477 8.40002C13.074 8.40002 13.2635 8.34169 13.3898 8.28335C13.7056 8.16669 13.7056 7.87502 13.4529 7.64169C13.3266 7.52502 13.1371 7.46669 12.9477 7.35002C12.695 7.23335 12.4424 7.11669 12.2529 6.94169C11.495 6.35835 11.7477 5.54169 12.1898 5.13335C12.5687 4.90002 12.7582 4.66669 13.2635 4.66669C14.0214 4.66669 14.8424 4.66669 15.2214 4.78335H15.2845C15.2214 5.13335 15.1582 5.42502 15.0319 5.77502C14.7161 5.65835 14.4003 5.54169 14.0845 5.54169C13.895 5.54169 13.7056 5.54169 13.5161 5.60002C13.3898 5.60002 13.3266 5.65835 13.2635 5.71669C13.1371 5.83335 13.1371 6.00835 13.2635 6.12502L13.5793 6.35835C13.8319 6.47502 14.0845 6.59169 14.274 6.70835C14.5898 6.88335 14.9056 7.17502 14.9687 7.52502C15.095 8.05002 14.9056 8.51669 14.4003 8.86669C14.0845 9.10002 13.9582 9.21669 13.5161 9.21669C12.6319 9.21669 11.9372 9.27502 11.3687 9.10002C11.3056 9.21669 11.3056 9.21669 11.2424 9.15835ZM9.03189 9.33335C9.09505 8.92502 9.09505 8.92502 9.1582 8.75002C9.47399 7.46669 9.78978 6.12502 10.0424 4.84169C10.1056 4.72502 10.1056 4.66669 10.2319 4.66669H11.3687C11.2424 5.36669 11.1161 5.89169 10.9266 6.53335C10.7371 7.40835 10.5477 8.28335 10.295 9.15835C10.295 9.27502 10.2319 9.27502 10.1056 9.27502M3.1582 4.78335C3.1582 4.72502 3.28452 4.66669 3.34768 4.66669H5.49504C5.81083 4.66669 6.06347 4.84169 6.12662 5.13335L6.69505 7.70002C6.69505 7.75835 6.69504 7.75835 6.7582 7.81669C6.7582 7.75835 6.82136 7.75835 6.82136 7.75835L8.14768 4.78335C8.08452 4.72502 8.14768 4.66669 8.21083 4.66669H9.53715C9.53715 4.72502 9.53715 4.72502 9.47399 4.78335L7.5161 9.04169C7.45294 9.15835 7.45294 9.21669 7.38978 9.27502C7.32662 9.33335 7.20031 9.27502 7.07399 9.27502H6.12662C6.06347 9.27502 6.00031 9.27502 6.00031 9.15835L4.98978 5.54169C4.86347 5.42502 4.67399 5.25002 4.42136 5.19169C4.04241 5.01669 3.34768 4.90002 3.22136 4.90002L3.1582 4.78335Z" fill="#142688"/>
</g>
<defs>
<clipPath id="clip0_78_446">
<rect width="24" height="14" fill="white"/>
</clipPath>
</defs>
</svg>
